<svg xmlns="http://www.w3.org/2000/svg" viewBox="0 0 200 200" width="200" height="200" role="img" aria-label="Indo-Chinese chilli dish">
  <defs>
    <radialGradient id="cnbg" cx="50%" cy="40%" r="65%">
      <stop offset="0%" stop-color="#FFE9CF"/><stop offset="100%" stop-color="#F3CE9E"/>
    </radialGradient>
    <linearGradient id="cnbox" x1="0" y1="0" x2="1" y2="0">
      <stop offset="0%" stop-color="#FFFFFF"/><stop offset="50%" stop-color="#F4F6F8"/><stop offset="100%" stop-color="#D7DDE3"/>
    </linearGradient>
  </defs>
  <circle cx="100" cy="100" r="94" fill="url(#cnbg)"/>
  <ellipse cx="100" cy="170" rx="50" ry="9" fill="#B8823C" opacity=".18"/>
  <g transform="translate(0 -4)">
    <g fill="#E0642F" stroke="#B84A1E" stroke-width="2.5">
      <rect x="72" y="44" width="20" height="20" rx="6" transform="rotate(-18 82 54)"/>
      <rect x="96" y="38" width="20" height="20" rx="6" transform="rotate(12 106 48)"/>
      <rect x="112" y="54" width="18" height="18" rx="5" transform="rotate(-8 121 63)"/>
      <rect x="80" y="62" width="18" height="18" rx="5" transform="rotate(20 89 71)"/>
    </g>
    <g fill="#6FA84E" stroke="#4F8236" stroke-width="2">
      <path d="M70 64c8-4 14 2 12 8-8 4-16-2-12-8z"/>
      <path d="M126 44c8-4 14 2 12 8-8 4-16-2-12-8z"/>
    </g>
    <path d="M92 30c6-6 14-4 16 4" stroke="#C0392B" stroke-width="4" fill="none" stroke-linecap="round"/>
  </g>
  <path d="M56 84h88l-9 74a12 12 0 0 1-12 11H77a12 12 0 0 1-12-11z" fill="url(#cnbox)"/>
  <path d="M56 84h88l-2 16H58z" fill="#C0392B" opacity=".85"/>
  <path d="M100 108c-14 0-24 8-24 18s10 18 24 18 24-8 24-18-10-18-24-18z" fill="#C0392B" opacity=".12"/>
  <g stroke="#C0392B" stroke-width="3.5" fill="none" stroke-linecap="round" opacity=".9">
    <path d="M86 122c8-6 20-6 28 0"/>
    <path d="M84 136c10 6 22 6 32 0"/>
  </g>
  <g stroke="#8A5A22" stroke-width="5" stroke-linecap="round">
    <path d="M124 40 152 96" opacity=".85"/>
    <path d="M136 36 160 94" opacity=".85"/>
  </g>
</svg>
